<svg xmlns="http://www.w3.org/2000/svg" width="13" height="17" viewBox="0 0 13 17"><g><g><path fill="#7347c1" d="M13 4.282V15.19c0 .998-.816 1.81-1.818 1.81H1.818A1.816 1.816 0 0 1 0 15.19V1.81C0 .811.816-.002 1.818-.002h6.863zM11.886 15.19l-.027-10.47-2.334.007a1.259 1.259 0 0 1-1.26-1.255v-2.37l-6.447.007a.703.703 0 0 0-.704.7V15.19c0 .387.316.701.704.701h9.364a.703.703 0 0 0 .704-.701zM6.06 7.364c.295.232.494.615.494 1.065 0 .45-.15.832-.425 1.092-.357.334-.885.485-1.502.485-.138 0-.261-.008-.357-.021v1.645H3.235V7.09a8.588 8.588 0 0 1 1.413-.095c.645 0 1.105.123 1.413.368zM5.52 8.456c0-.423-.295-.676-.816-.676-.213 0-.357.02-.432.041v1.358c.089.021.199.028.35.028.555 0 .898-.28.898-.75zm4.701 1.815c0 .772-.597 1.427-1.866 1.427-.528 0-1.049-.137-1.31-.28l.213-.86c.281.144.713.287 1.16.287.48 0 .733-.199.733-.498 0-.287-.22-.45-.775-.649-.768-.267-1.269-.689-1.269-1.358 0-.785.659-1.386 1.75-1.386.52 0 .905.11 1.18.233l-.234.84a2.21 2.21 0 0 0-.968-.22c-.452 0-.672.205-.672.444 0 .294.261.424.858.649.816.3 1.2.723 1.2 1.371z"/></g></g></svg>